Lobster Thai-Regular.ufo
<glyph name="dollar" format="1">
  <advance width="1122"/>
  <unicode hex="0024"/>
  <outline>
    <contour>
      <point x="412" y="-293" type="line"/>
      <point x="470" y="-37" type="line"/>
      <point x="763" y="-34"/>
      <point x="991" y="173"/>
      <point x="991" y="438" type="curve" smooth="yes"/>
      <point x="991" y="661"/>
      <point x="827" y="808"/>
      <point x="697" y="953" type="curve"/>
      <point x="811" y="1453" type="line"/>
      <point x="864" y="1433"/>
      <point x="895" y="1386"/>
      <point x="895" y="1321" type="curve" smooth="yes"/>
      <point x="895" y="1251"/>
      <point x="862" y="1184"/>
      <point x="811" y="1147" type="curve"/>
      <point x="842" y="1106"/>
      <point x="885" y="1083"/>
      <point x="936" y="1083" type="curve" smooth="yes"/>
      <point x="1028" y="1083"/>
      <point x="1092" y="1161"/>
      <point x="1092" y="1276" type="curve" smooth="yes"/>
      <point x="1092" y="1420"/>
      <point x="993" y="1522"/>
      <point x="834" y="1553" type="curve"/>
      <point x="883" y="1767" type="line"/>
      <point x="778" y="1767" type="line"/>
      <point x="731" y="1563" type="line"/>
      <point x="727" y="1563" type="line" smooth="yes"/>
      <point x="469" y="1563"/>
      <point x="279" y="1403"/>
      <point x="279" y="1188" type="curve" smooth="yes"/>
      <point x="279" y="1005"/>
      <point x="418" y="862"/>
      <point x="539" y="717" type="curve"/>
      <point x="401" y="109" type="line"/>
      <point x="302" y="125"/>
      <point x="240" y="192"/>
      <point x="240" y="287" type="curve" smooth="yes"/>
      <point x="240" y="395"/>
      <point x="317" y="469"/>
      <point x="432" y="469" type="curve"/>
      <point x="418" y="549"/>
      <point x="346" y="604"/>
      <point x="256" y="604" type="curve" smooth="yes"/>
      <point x="123" y="604"/>
      <point x="29" y="489"/>
      <point x="29" y="328" type="curve" smooth="yes"/>
      <point x="29" y="137"/>
      <point x="161" y="1"/>
      <point x="369" y="-30" type="curve"/>
      <point x="309" y="-293" type="line"/>
    </contour>
    <contour>
      <point x="715" y="229"/>
      <point x="630" y="133"/>
      <point x="504" y="111" type="curve"/>
      <point x="619" y="615" type="line"/>
      <point x="675" y="536"/>
      <point x="715" y="454"/>
      <point x="715" y="362" type="curve" smooth="yes"/>
    </contour>
    <contour>
      <point x="541" y="1364"/>
      <point x="608" y="1443"/>
      <point x="708" y="1460" type="curve"/>
      <point x="616" y="1053" type="line"/>
      <point x="571" y="1117"/>
      <point x="541" y="1182"/>
      <point x="541" y="1257" type="curve" smooth="yes"/>
    </contour>
  </outline>
</glyph>
<glyph name="onehalf" format="1">
  <advance width="1499"/>
  <unicode hex="00BD"/>
  <outline>
    <contour>
      <point x="1214" y="1540" type="line"/>
      <point x="1067" y="1540" type="line"/>
      <point x="215" y="0" type="line"/>
      <point x="362" y="0" type="line"/>
    </contour>
    <contour>
      <point x="572" y="1559" type="line"/>
      <point x="565" y="1563" type="line"/>
      <point x="455" y="1507"/>
      <point x="338" y="1475"/>
      <point x="229" y="1475" type="curve"/>
      <point x="225" y="1462"/>
      <point x="223" y="1452"/>
      <point x="223" y="1442" type="curve" smooth="yes"/>
      <point x="223" y="1403"/>
      <point x="248" y="1378"/>
      <point x="297" y="1378" type="curve" smooth="yes"/>
      <point x="313" y="1378"/>
      <point x="336" y="1382"/>
      <point x="359" y="1389" type="curve"/>
      <point x="215" y="705" type="line"/>
      <point x="389" y="705" type="line"/>
    </contour>
    <contour>
      <point x="1382" y="199" type="line"/>
      <point x="1349" y="162"/>
      <point x="1321" y="150"/>
      <point x="1286" y="150" type="curve" smooth="yes"/>
      <point x="1237" y="150"/>
      <point x="1167" y="174"/>
      <point x="1093" y="174" type="curve" smooth="yes"/>
      <point x="1071" y="174"/>
      <point x="1050" y="174"/>
      <point x="1024" y="166" type="curve"/>
      <point x="1112" y="340"/>
      <point x="1437" y="461"/>
      <point x="1437" y="676" type="curve" smooth="yes"/>
      <point x="1437" y="793"/>
      <point x="1343" y="860"/>
      <point x="1208" y="860" type="curve" smooth="yes"/>
      <point x="1048" y="860"/>
      <point x="962" y="760"/>
      <point x="962" y="670" type="curve" smooth="yes"/>
      <point x="962" y="610"/>
      <point x="1003" y="578"/>
      <point x="1054" y="578" type="curve" smooth="yes"/>
      <point x="1081" y="578"/>
      <point x="1114" y="592"/>
      <point x="1138" y="614" type="curve"/>
      <point x="1136" y="621" type="line"/>
      <point x="1108" y="633"/>
      <point x="1085" y="666"/>
      <point x="1085" y="709" type="curve" smooth="yes"/>
      <point x="1085" y="760"/>
      <point x="1122" y="801"/>
      <point x="1173" y="801" type="curve" smooth="yes"/>
      <point x="1226" y="801"/>
      <point x="1249" y="750"/>
      <point x="1249" y="680" type="curve" smooth="yes"/>
      <point x="1249" y="408"/>
      <point x="888" y="270"/>
      <point x="888" y="51" type="curve" smooth="yes"/>
      <point x="888" y="33"/>
      <point x="890" y="16"/>
      <point x="895" y="-2" type="curve"/>
      <point x="903" y="-2" type="line"/>
      <point x="950" y="23"/>
      <point x="987" y="31"/>
      <point x="1024" y="31" type="curve" smooth="yes"/>
      <point x="1108" y="31"/>
      <point x="1183" y="-12"/>
      <point x="1253" y="-12" type="curve" smooth="yes"/>
      <point x="1333" y="-12"/>
      <point x="1402" y="43"/>
      <point x="1402" y="125" type="curve" smooth="yes"/>
      <point x="1402" y="145"/>
      <point x="1398" y="170"/>
      <point x="1388" y="197" type="curve"/>
    </contour>
  </outline>
</glyph>
<glyph name="khoKhwai-thai" format="1">
  <advance width="1102"/>
  <unicode hex="0E04"/>
  <outline>
    <contour>
      <point x="1079" y="803" type="line" smooth="yes"/>
      <point x="1088" y="846"/>
      <point x="1094" y="885"/>
      <point x="1094" y="922" type="curve" smooth="yes"/>
      <point x="1094" y="1081"/>
      <point x="997" y="1188"/>
      <point x="700" y="1188" type="curve" smooth="yes"/>
      <point x="387" y="1188"/>
      <point x="232" y="1096"/>
      <point x="195" y="920" type="curve" smooth="yes"/>
      <point x="0" y="0" type="line"/>
      <point x="295" y="0" type="line"/>
      <point x="483" y="887" type="line" smooth="yes"/>
      <point x="517" y="1047"/>
      <point x="571" y="1092"/>
      <point x="692" y="1092" type="curve" smooth="yes"/>
      <point x="784" y="1092"/>
      <point x="815" y="1046"/>
      <point x="815" y="977" type="curve" smooth="yes"/>
      <point x="815" y="953"/>
      <point x="811" y="926"/>
      <point x="805" y="897" type="curve" smooth="yes"/>
      <point x="614" y="0" type="line"/>
      <point x="909" y="0" type="line"/>
    </contour>
    <contour>
      <point x="498" y="459"/>
      <point x="520" y="428"/>
      <point x="580" y="428" type="curve" smooth="yes"/>
      <point x="643" y="428"/>
      <point x="682" y="471"/>
      <point x="682" y="539" type="curve" smooth="yes"/>
      <point x="682" y="594"/>
      <point x="647" y="635"/>
      <point x="573" y="635" type="curve" smooth="yes"/>
      <point x="512" y="635"/>
      <point x="432" y="604"/>
      <point x="322" y="471" type="curve"/>
      <point x="307" y="455"/>
      <point x="291" y="432"/>
      <point x="266" y="406" type="curve"/>
      <point x="266" y="406"/>
      <point x="375" y="379"/>
      <point x="375" y="379" type="curve"/>
      <point x="401" y="426"/>
      <point x="444" y="465"/>
      <point x="494" y="479" type="curve"/>
    </contour>
  </outline>
</glyph>
<glyph name="khoRakhang-thai" format="1">
  <advance width="1088"/>
  <unicode hex="0E06"/>
  <outline>
    <contour>
      <point x="1118" y="1178" type="line"/>
      <point x="825" y="1178" type="line"/>
      <point x="639" y="299" type="line" smooth="yes"/>
      <point x="619" y="205"/>
      <point x="588" y="172"/>
      <point x="502" y="172" type="curve" smooth="yes"/>
      <point x="434" y="172"/>
      <point x="365" y="229"/>
      <point x="365" y="315" type="curve" smooth="yes"/>
      <point x="365" y="328"/>
      <point x="367" y="340"/>
      <point x="369" y="352" type="curve" smooth="yes"/>
      <point x="393" y="475" type="line" smooth="yes"/>
      <point x="438" y="707"/>
      <point x="721" y="709"/>
      <point x="723" y="1075" type="curve" smooth="yes"/>
      <point x="723" y="1153"/>
      <point x="684" y="1188"/>
      <point x="610" y="1188" type="curve" smooth="yes"/>
      <point x="524" y="1188"/>
      <point x="481" y="1161"/>
      <point x="436" y="1036" type="curve"/>
      <point x="426" y="1028"/>
      <point x="412" y="1022"/>
      <point x="399" y="1022" type="curve" smooth="yes"/>
      <point x="385" y="1022"/>
      <point x="375" y="1030"/>
      <point x="375" y="1053" type="curve" smooth="yes"/>
      <point x="375" y="1061"/>
      <point x="377" y="1069"/>
      <point x="379" y="1081" type="curve"/>
      <point x="401" y="1178" type="line"/>
      <point x="215" y="1178" type="line"/>
      <point x="201" y="1120" type="line" smooth="yes"/>
      <point x="184" y="1049"/>
      <point x="172" y="993"/>
      <point x="172" y="950" type="curve" smooth="yes"/>
      <point x="172" y="889"/>
      <point x="195" y="858"/>
      <point x="256" y="858" type="curve" smooth="yes"/>
      <point x="328" y="858"/>
      <point x="399" y="915"/>
      <point x="453" y="963" type="curve"/>
      <point x="461" y="954"/>
      <point x="465" y="946"/>
      <point x="465" y="932" type="curve" smooth="yes"/>
      <point x="465" y="854"/>
      <point x="160" y="760"/>
      <point x="109" y="518" type="curve" smooth="yes"/>
      <point x="0" y="0" type="line"/>
      <point x="295" y="0" type="line"/>
      <point x="330" y="170" type="line"/>
      <point x="387" y="35"/>
      <point x="510" y="-27"/>
      <point x="621" y="-27" type="curve" smooth="yes"/>
      <point x="805" y="-27"/>
      <point x="889" y="92"/>
      <point x="936" y="313" type="curve" smooth="yes"/>
    </contour>
  </outline>
</glyph>
<glyph name="choChang-thai" format="1">
  <advance width="1089"/>
  <unicode hex="0E0A"/>
  <outline>
    <contour>
      <point x="633" y="274" type="line" smooth="yes"/>
      <point x="600" y="115"/>
      <point x="524" y="70"/>
      <point x="424" y="70" type="curve" smooth="yes"/>
      <point x="357" y="70"/>
      <point x="318" y="100"/>
      <point x="318" y="170" type="curve" smooth="yes"/>
      <point x="318" y="197"/>
      <point x="322" y="227"/>
      <point x="330" y="264" type="curve" smooth="yes"/>
      <point x="390" y="543" type="line" smooth="yes"/>
      <point x="435" y="752"/>
      <point x="660" y="791"/>
      <point x="660" y="1004" type="curve" smooth="yes"/>
      <point x="660" y="1153"/>
      <point x="552" y="1188"/>
      <point x="427" y="1188" type="curve" smooth="yes"/>
      <point x="347" y="1188"/>
      <point x="277" y="1176"/>
      <point x="236" y="1157" type="curve"/>
      <point x="214" y="1042" type="line"/>
      <point x="238" y="1055"/>
      <point x="271" y="1063"/>
      <point x="304" y="1063" type="curve" smooth="yes"/>
      <point x="345" y="1063"/>
      <point x="388" y="1051"/>
      <point x="388" y="997" type="curve" smooth="yes"/>
      <point x="388" y="893"/>
      <point x="148" y="786"/>
      <point x="99" y="559" type="curve" smooth="yes"/>
      <point x="56" y="358" type="line" smooth="yes"/>
      <point x="46" y="313"/>
      <point x="40" y="270"/>
      <point x="40" y="231" type="curve" smooth="yes"/>
      <point x="40" y="76"/>
      <point x="140" y="-27"/>
      <point x="416" y="-27" type="curve" smooth="yes"/>
      <point x="708" y="-27"/>
      <point x="885" y="66"/>
      <point x="922" y="242" type="curve" smooth="yes"/>
      <point x="1017" y="696" type="line" smooth="yes"/>
      <point x="1023" y="727"/>
      <point x="1027" y="754"/>
      <point x="1027" y="780" type="curve" smooth="yes"/>
      <point x="1027" y="909"/>
      <point x="919" y="1011"/>
      <point x="819" y="1048" type="curve"/>
      <point x="909" y="1124"/>
      <point x="992" y="1151"/>
      <point x="1100" y="1151" type="curve" smooth="yes"/>
      <point x="1159" y="1151"/>
      <point x="1219" y="1136"/>
      <point x="1267" y="1113" type="curve"/>
      <point x="1267" y="1261"/>
      <point x="1194" y="1330"/>
      <point x="1067" y="1330" type="curve" smooth="yes"/>
      <point x="867" y="1330"/>
      <point x="761" y="1166"/>
      <point x="684" y="1012" type="curve"/>
      <point x="727" y="962"/>
      <point x="746" y="917"/>
      <point x="746" y="856" type="curve" smooth="yes"/>
      <point x="746" y="825"/>
      <point x="740" y="788"/>
      <point x="732" y="747" type="curve" smooth="yes"/>
    </contour>
  </outline>
</glyph>
<glyph name="doDek-thai" format="1">
  <advance width="1123"/>
  <unicode hex="0E14"/>
  <outline>
    <contour>
      <point x="1076" y="770" type="line" smooth="yes"/>
      <point x="1084" y="809"/>
      <point x="1088" y="845"/>
      <point x="1088" y="879" type="curve" smooth="yes"/>
      <point x="1088" y="1078"/>
      <point x="948" y="1188"/>
      <point x="701" y="1188" type="curve" smooth="yes"/>
      <point x="231" y="1188"/>
      <point x="30" y="800"/>
      <point x="30" y="331" type="curve" smooth="yes"/>
      <point x="30" y="99"/>
      <point x="171" y="-27"/>
      <point x="347" y="-27" type="curve" smooth="yes"/>
      <point x="425" y="-27"/>
      <point x="486" y="-12"/>
      <point x="527" y="4" type="curve"/>
      <point x="552" y="119" type="line"/>
      <point x="527" y="107"/>
      <point x="482" y="98"/>
      <point x="443" y="98" type="curve" smooth="yes"/>
      <point x="366" y="98"/>
      <point x="336" y="188"/>
      <point x="336" y="298" type="curve" smooth="yes"/>
      <point x="336" y="715"/>
      <point x="501" y="1063"/>
      <point x="695" y="1063" type="curve" smooth="yes"/>
      <point x="778" y="1063"/>
      <point x="811" y="1022"/>
      <point x="811" y="945" type="curve" smooth="yes"/>
      <point x="811" y="917"/>
      <point x="806" y="884"/>
      <point x="798" y="846" type="curve" smooth="yes"/>
      <point x="617" y="0" type="line"/>
      <point x="912" y="0" type="line"/>
    </contour>
  </outline>
</glyph>
<glyph name="noNu-thai" format="1">
  <advance width="1081"/>
  <unicode hex="0E19"/>
  <outline>
    <contour>
      <point x="1080" y="303" type="line"/>
      <point x="1063" y="231"/>
      <point x="1026" y="172"/>
      <point x="967" y="172" type="curve" smooth="yes"/>
      <point x="914" y="172"/>
      <point x="891" y="190"/>
      <point x="891" y="248" type="curve" smooth="yes"/>
      <point x="891" y="266"/>
      <point x="893" y="287"/>
      <point x="899" y="313" type="curve" smooth="yes"/>
      <point x="1082" y="1178" type="line"/>
      <point x="787" y="1178" type="line"/>
      <point x="613" y="352" type="line" smooth="yes"/>
      <point x="591" y="248"/>
      <point x="503" y="172"/>
      <point x="423" y="172" type="curve" smooth="yes"/>
      <point x="367" y="172"/>
      <point x="336" y="214"/>
      <point x="336" y="266" type="curve" smooth="yes"/>
      <point x="336" y="281"/>
      <point x="338" y="297"/>
      <point x="341" y="313" type="curve" smooth="yes"/>
      <point x="523" y="1178" type="line"/>
      <point x="228" y="1178" type="line"/>
      <point x="54" y="352" type="line" smooth="yes"/>
      <point x="45" y="311"/>
      <point x="40" y="269"/>
      <point x="40" y="228" type="curve" smooth="yes"/>
      <point x="40" y="91"/>
      <point x="107" y="-27"/>
      <point x="284" y="-27" type="curve" smooth="yes"/>
      <point x="370" y="-27"/>
      <point x="506" y="0"/>
      <point x="613" y="170" type="curve"/>
      <point x="623" y="43"/>
      <point x="699" y="-27"/>
      <point x="815" y="-27" type="curve" smooth="yes"/>
      <point x="936" y="-27"/>
      <point x="1092" y="6"/>
      <point x="1166" y="303" type="curve"/>
    </contour>
    <contour>
      <point x="1082" y="1178" type="move" name="top"/>
    </contour>
  </outline>
</glyph>
<glyph name="poPla-thai" format="1">
  <advance width="1088"/>
  <unicode hex="0E1B"/>
  <outline>
    <contour>
      <point x="1187" y="1500" type="line"/>
      <point x="884" y="1459" type="line"/>
      <point x="631" y="274" type="line" smooth="yes"/>
      <point x="597" y="115"/>
      <point x="553" y="70"/>
      <point x="432" y="70" type="curve" smooth="yes"/>
      <point x="349" y="70"/>
      <point x="318" y="101"/>
      <point x="318" y="170" type="curve" smooth="yes"/>
      <point x="318" y="196"/>
      <point x="322" y="227"/>
      <point x="330" y="264" type="curve" smooth="yes"/>
      <point x="524" y="1178" type="line"/>
      <point x="230" y="1178" type="line"/>
      <point x="55" y="358" type="line" smooth="yes"/>
      <point x="45" y="313"/>
      <point x="40" y="271"/>
      <point x="40" y="232" type="curve" smooth="yes"/>
      <point x="40" y="76"/>
      <point x="131" y="-27"/>
      <point x="424" y="-27" type="curve" smooth="yes"/>
      <point x="737" y="-27"/>
      <point x="883" y="66"/>
      <point x="920" y="242" type="curve" smooth="yes"/>
    </contour>
    <contour>
      <point x="737" y="1178" type="move" name="top"/>
    </contour>
  </outline>
</glyph>
<glyph name="soRusi-thai" format="1">
  <advance width="1084"/>
  <unicode hex="0E29"/>
  <outline>
    <contour>
      <point x="797" y="577"/>
      <point x="772" y="575"/>
      <point x="750" y="575" type="curve" smooth="yes"/>
      <point x="679" y="575"/>
      <point x="652" y="600"/>
      <point x="652" y="647" type="curve" smooth="yes"/>
      <point x="652" y="684"/>
      <point x="666" y="731"/>
      <point x="695" y="756" type="curve"/>
      <point x="670" y="784"/>
      <point x="637" y="801"/>
      <point x="586" y="801" type="curve" smooth="yes"/>
      <point x="496" y="801"/>
      <point x="451" y="731"/>
      <point x="451" y="659" type="curve" smooth="yes"/>
      <point x="451" y="532"/>
      <point x="554" y="473"/>
      <point x="729" y="473" type="curve" smooth="yes"/>
      <point x="778" y="473"/>
      <point x="833" y="478"/>
      <point x="893" y="487" type="curve"/>
      <point x="893" y="487"/>
      <point x="828" y="582"/>
      <point x="828" y="582" type="curve"/>
    </contour>
    <contour>
      <point x="1118" y="1178" type="line"/>
      <point x="823" y="1178" type="line"/>
      <point x="631" y="274" type="line" smooth="yes"/>
      <point x="597" y="115"/>
      <point x="553" y="70"/>
      <point x="432" y="70" type="curve" smooth="yes"/>
      <point x="349" y="70"/>
      <point x="318" y="101"/>
      <point x="318" y="170" type="curve" smooth="yes"/>
      <point x="318" y="196"/>
      <point x="322" y="227"/>
      <point x="330" y="264" type="curve" smooth="yes"/>
      <point x="524" y="1178" type="line"/>
      <point x="230" y="1178" type="line"/>
      <point x="55" y="358" type="line" smooth="yes"/>
      <point x="45" y="313"/>
      <point x="40" y="271"/>
      <point x="40" y="232" type="curve" smooth="yes"/>
      <point x="40" y="76"/>
      <point x="131" y="-27"/>
      <point x="424" y="-27" type="curve" smooth="yes"/>
      <point x="737" y="-27"/>
      <point x="883" y="66"/>
      <point x="920" y="242" type="curve" smooth="yes"/>
    </contour>
  </outline>
</glyph>
<glyph name="maiHanaKat-thai" format="1">
  <advance width="0"/>
  <unicode hex="0E31"/>
  <outline>
    <contour>
      <point x="302" y="1484" type="line"/>
      <point x="-167" y="1484" type="line" smooth="yes"/>
      <point x="-203" y="1484"/>
      <point x="-214" y="1509"/>
      <point x="-214" y="1534" type="curve" smooth="yes"/>
      <point x="-214" y="1560"/>
      <point x="-202" y="1593"/>
      <point x="-188" y="1619" type="curve"/>
      <point x="-435" y="1619" type="line"/>
      <point x="-462" y="1573"/>
      <point x="-478" y="1511"/>
      <point x="-478" y="1458" type="curve" smooth="yes"/>
      <point x="-478" y="1394"/>
      <point x="-438" y="1342"/>
      <point x="-352" y="1342" type="curve" smooth="yes"/>
      <point x="271" y="1342" type="line"/>
    </contour>
  </outline>
</glyph>
<glyph name="saraE-thai" format="1">
  <advance width="552"/>
  <unicode hex="0E40"/>
  <outline>
    <contour>
      <point x="504" y="118" type="line"/>
      <point x="482" y="108"/>
      <point x="443" y="98"/>
      <point x="402" y="98" type="curve" smooth="yes"/>
      <point x="354" y="98"/>
      <point x="334" y="121"/>
      <point x="334" y="166" type="curve" smooth="yes"/>
      <point x="334" y="183"/>
      <point x="337" y="202"/>
      <point x="342" y="225" type="curve" smooth="yes"/>
      <point x="544" y="1178" type="line"/>
      <point x="249" y="1178" type="line"/>
      <point x="60" y="285" type="line" smooth="yes"/>
      <point x="53" y="250"/>
      <point x="49" y="218"/>
      <point x="49" y="189" type="curve" smooth="yes"/>
      <point x="49" y="49"/>
      <point x="132" y="-27"/>
      <point x="278" y="-27" type="curve" smooth="yes"/>
      <point x="372" y="-27"/>
      <point x="437" y="-12"/>
      <point x="480" y="4" type="curve"/>
    </contour>
  </outline>
</glyph>
<glyph name="saraAe-thai" format="1">
  <advance width="1086"/>
  <unicode hex="0E41"/>
  <outline>
    <contour>
      <point x="504" y="118" type="line"/>
      <point x="482" y="108"/>
      <point x="443" y="98"/>
      <point x="402" y="98" type="curve" smooth="yes"/>
      <point x="354" y="98"/>
      <point x="334" y="121"/>
      <point x="334" y="166" type="curve" smooth="yes"/>
      <point x="334" y="183"/>
      <point x="337" y="202"/>
      <point x="342" y="225" type="curve" smooth="yes"/>
      <point x="544" y="1178" type="line"/>
      <point x="249" y="1178" type="line"/>
      <point x="60" y="285" type="line" smooth="yes"/>
      <point x="53" y="250"/>
      <point x="49" y="218"/>
      <point x="49" y="189" type="curve" smooth="yes"/>
      <point x="49" y="49"/>
      <point x="132" y="-27"/>
      <point x="278" y="-27" type="curve" smooth="yes"/>
      <point x="372" y="-27"/>
      <point x="437" y="-12"/>
      <point x="480" y="4" type="curve"/>
    </contour>
    <contour>
      <point x="1038" y="118" type="line"/>
      <point x="1016" y="108"/>
      <point x="977" y="98"/>
      <point x="936" y="98" type="curve" smooth="yes"/>
      <point x="888" y="98"/>
      <point x="868" y="121"/>
      <point x="868" y="166" type="curve" smooth="yes"/>
      <point x="868" y="183"/>
      <point x="871" y="202"/>
      <point x="876" y="225" type="curve" smooth="yes"/>
      <point x="1078" y="1178" type="line"/>
      <point x="783" y="1178" type="line"/>
      <point x="594" y="285" type="line" smooth="yes"/>
      <point x="587" y="250"/>
      <point x="583" y="218"/>
      <point x="583" y="189" type="curve" smooth="yes"/>
      <point x="583" y="49"/>
      <point x="666" y="-27"/>
      <point x="812" y="-27" type="curve" smooth="yes"/>
      <point x="906" y="-27"/>
      <point x="971" y="-12"/>
      <point x="1014" y="4" type="curve"/>
    </contour>
  </outline>
</glyph>
<glyph name="maiTho-thai" format="1">
  <advance width="0"/>
  <unicode hex="0E49"/>
  <outline>
    <contour>
      <point x="171" y="1342" type="line"/>
      <point x="202" y="1484" type="line"/>
      <point x="-161" y="1484" type="line"/>
      <point x="-146" y="1552" type="line" smooth="yes"/>
      <point x="-144" y="1562"/>
      <point x="-142" y="1570"/>
      <point x="-142" y="1578" type="curve" smooth="yes"/>
      <point x="-142" y="1617"/>
      <point x="-174" y="1635"/>
      <point x="-231" y="1635" type="curve" smooth="yes"/>
      <point x="-475" y="1635" type="line"/>
      <point x="-495" y="1535" type="line"/>
      <point x="-394" y="1535" type="line"/>
      <point x="-414" y="1444" type="line" smooth="yes"/>
      <point x="-417" y="1430"/>
      <point x="-418" y="1417"/>
      <point x="-418" y="1406" type="curve" smooth="yes"/>
      <point x="-418" y="1349"/>
      <point x="-379" y="1342"/>
      <point x="-322" y="1342" type="curve" smooth="yes"/>
    </contour>
    <contour>
      <point x="-61" y="1355" type="move" name="top"/>
    </contour>
    <contour>
      <point x="42" y="1178" type="move" name="_top"/>
    </contour>
  </outline>
</glyph>
<glyph name="nikhahit-thai" format="1">
  <advance width="0"/>
  <unicode hex="0E4D"/>
  <outline>
    <contour>
      <point x="7" y="1440"/>
      <point x="-20" y="1405"/>
      <point x="-77" y="1405" type="curve" smooth="yes"/>
      <point x="-134" y="1405"/>
      <point x="-161" y="1440"/>
      <point x="-161" y="1482" type="curve" smooth="yes"/>
      <point x="-161" y="1524"/>
      <point x="-134" y="1559"/>
      <point x="-77" y="1559" type="curve" smooth="yes"/>
      <point x="-20" y="1559"/>
      <point x="7" y="1524"/>
      <point x="7" y="1482" type="curve" smooth="yes"/>
    </contour>
    <contour>
      <point x="139" y="1580"/>
      <point x="63" y="1655"/>
      <point x="-77" y="1655" type="curve" smooth="yes"/>
      <point x="-217" y="1655"/>
      <point x="-293" y="1580"/>
      <point x="-293" y="1482" type="curve" smooth="yes"/>
      <point x="-293" y="1384"/>
      <point x="-217" y="1309"/>
      <point x="-77" y="1309" type="curve" smooth="yes"/>
      <point x="63" y="1309"/>
      <point x="139" y="1384"/>
      <point x="139" y="1482" type="curve" smooth="yes"/>
    </contour>
    <contour>
      <point x="16" y="1343" type="move" name="top"/>
    </contour>
    <contour>
      <point x="63" y="1178" type="move" name="_top"/>
    </contour>
  </outline>
</glyph>
<glyph name="one-thai" format="1">
  <advance width="1300"/>
  <unicode hex="0E51"/>
  <outline>
    <contour>
      <point x="516" y="-277" type="line"/>
      <point x="1058" y="-273"/>
      <point x="1252" y="274"/>
      <point x="1252" y="538" type="curve" smooth="yes"/>
      <point x="1252" y="726"/>
      <point x="1168" y="977"/>
      <point x="759" y="977" type="curve" smooth="yes"/>
      <point x="346" y="977"/>
      <point x="42" y="737"/>
      <point x="42" y="340" type="curve" smooth="yes"/>
      <point x="42" y="74"/>
      <point x="242" y="-27"/>
      <point x="457" y="-27" type="curve" smooth="yes"/>
      <point x="574" y="-27"/>
      <point x="696" y="29"/>
      <point x="696" y="153" type="curve" smooth="yes"/>
      <point x="696" y="231"/>
      <point x="643" y="292"/>
      <point x="558" y="292" type="curve" smooth="yes"/>
      <point x="465" y="292"/>
      <point x="400" y="224"/>
      <point x="400" y="140" type="curve" smooth="yes"/>
      <point x="400" y="119"/>
      <point x="405" y="99"/>
      <point x="413" y="82" type="curve"/>
      <point x="351" y="111"/>
      <point x="327" y="232"/>
      <point x="327" y="312" type="curve" smooth="yes"/>
      <point x="327" y="589"/>
      <point x="456" y="852"/>
      <point x="753" y="852" type="curve" smooth="yes"/>
      <point x="925" y="852"/>
      <point x="954" y="685"/>
      <point x="954" y="581" type="curve" smooth="yes"/>
      <point x="954" y="196"/>
      <point x="749" y="-158"/>
      <point x="546" y="-158" type="curve"/>
    </contour>
  </outline>
</glyph>
<glyph name="nine-thai" format="1">
  <advance width="1314"/>
  <unicode hex="0E59"/>
  <outline>
    <contour>
      <point x="1069" y="0" type="line"/>
      <point x="1068" y="489"/>
      <point x="907" y="977"/>
      <point x="546" y="977" type="curve" smooth="yes"/>
      <point x="247" y="977"/>
      <point x="29" y="689"/>
      <point x="29" y="349" type="curve" smooth="yes"/>
      <point x="29" y="137"/>
      <point x="115" y="-27"/>
      <point x="410" y="-27" type="curve" smooth="yes"/>
      <point x="560" y="-27"/>
      <point x="666" y="33"/>
      <point x="666" y="144" type="curve" smooth="yes"/>
      <point x="666" y="222"/>
      <point x="623" y="260"/>
      <point x="547" y="260" type="curve" smooth="yes"/>
      <point x="482" y="260"/>
      <point x="426" y="224"/>
      <point x="426" y="140" type="curve" smooth="yes"/>
      <point x="426" y="126"/>
      <point x="428" y="113"/>
      <point x="431" y="101" type="curve"/>
      <point x="358" y="120"/>
      <point x="328" y="161"/>
      <point x="328" y="270" type="curve" smooth="yes"/>
      <point x="328" y="520"/>
      <point x="434" y="852"/>
      <point x="569" y="852" type="curve" smooth="yes"/>
      <point x="811" y="852"/>
      <point x="830" y="84"/>
      <point x="830" y="0" type="curve"/>
    </contour>
    <contour>
      <point x="952" y="561" type="line"/>
      <point x="1030" y="601"/>
      <point x="1149" y="701"/>
      <point x="1149" y="777" type="curve" smooth="yes"/>
      <point x="1149" y="855"/>
      <point x="1116" y="864"/>
      <point x="1116" y="905" type="curve" smooth="yes"/>
      <point x="1116" y="981"/>
      <point x="1330" y="922"/>
      <point x="1330" y="1063" type="curve" smooth="yes"/>
      <point x="1330" y="1110"/>
      <point x="1300" y="1158"/>
      <point x="1202" y="1188" type="curve"/>
      <point x="1177" y="1044"/>
      <point x="895" y="1148"/>
      <point x="895" y="967" type="curve" smooth="yes"/>
      <point x="895" y="917"/>
      <point x="930" y="852"/>
      <point x="930" y="805" type="curve" smooth="yes"/>
      <point x="930" y="759"/>
      <point x="869" y="708"/>
      <point x="811" y="645" type="curve"/>
    </contour>
  </outline>
</glyph>
<glyph name="ohornhookabove" format="1">
  <advance width="899"/>
  <unicode hex="1EDF"/>
  <outline>
    <contour>
      <point x="797" y="763"/>
      <point x="790" y="820"/>
      <point x="776" y="867" type="curve"/>
      <point x="900" y="934"/>
      <point x="1001" y="1093"/>
      <point x="1001" y="1225" type="curve" smooth="yes"/>
      <point x="1001" y="1292"/>
      <point x="967" y="1315"/>
      <point x="925" y="1315" type="curve" smooth="yes"/>
      <point x="888" y="1315"/>
      <point x="846" y="1297"/>
      <point x="814" y="1275" type="curve"/>
      <point x="821" y="1243"/>
      <point x="825" y="1208"/>
      <point x="825" y="1174" type="curve" smooth="yes"/>
      <point x="825" y="1090"/>
      <point x="806" y="1012"/>
      <point x="726" y="966" type="curve"/>
      <point x="683" y="1015"/>
      <point x="620" y="1039"/>
      <point x="535" y="1039" type="curve" smooth="yes"/>
      <point x="228" y="1039"/>
      <point x="-26" y="728"/>
      <point x="-26" y="355" type="curve" smooth="yes"/>
      <point x="-26" y="120"/>
      <point x="77" y="-7"/>
      <point x="271" y="-7" type="curve" smooth="yes"/>
      <point x="568" y="-7"/>
      <point x="797" y="298"/>
      <point x="797" y="695" type="curve" smooth="yes"/>
    </contour>
    <contour>
      <point x="603" y="927"/>
      <point x="632" y="867"/>
      <point x="632" y="765" type="curve" smooth="yes"/>
      <point x="632" y="480"/>
      <point x="492" y="185"/>
      <point x="359" y="185" type="curve" smooth="yes"/>
      <point x="304" y="185"/>
      <point x="279" y="234"/>
      <point x="279" y="345" type="curve" smooth="yes"/>
      <point x="279" y="613"/>
      <point x="427" y="927"/>
      <point x="554" y="927" type="curve" smooth="yes"/>
    </contour>
    <contour>
      <point x="502" y="1154" type="line"/>
      <point x="598" y="1149" type="line"/>
      <point x="613" y="1232" type="line"/>
      <point x="741" y="1243"/>
      <point x="829" y="1319"/>
      <point x="829" y="1415" type="curve" smooth="yes"/>
      <point x="829" y="1512"/>
      <point x="741" y="1585"/>
      <point x="617" y="1585" type="curve" smooth="yes"/>
      <point x="543" y="1585"/>
      <point x="463" y="1564"/>
      <point x="417" y="1535" type="curve"/>
      <point x="471" y="1449" type="line"/>
      <point x="505" y="1471"/>
      <point x="548" y="1482"/>
      <point x="593" y="1482" type="curve" smooth="yes"/>
      <point x="657" y="1482"/>
      <point x="689" y="1452"/>
      <point x="689" y="1402" type="curve" smooth="yes"/>
      <point x="689" y="1357"/>
      <point x="655" y="1324"/>
      <point x="593" y="1324" type="curve" smooth="yes"/>
      <point x="567" y="1324"/>
      <point x="533" y="1327"/>
      <point x="502" y="1333" type="curve"/>
    </contour>
  </outline>
</glyph>
<glyph name="guilsinglleft" format="1">
  <advance width="735"/>
  <unicode hex="2039"/>
  <outline>
    <contour>
      <point x="547" y="166" type="line"/>
      <point x="571" y="283" type="line"/>
      <point x="174" y="520" type="line"/>
      <point x="668" y="807" type="line"/>
      <point x="688" y="920" type="line"/>
      <point x="59" y="571" type="line"/>
      <point x="41" y="487" type="line"/>
    </contour>
  </outline>
</glyph>
<glyph name="eight.numerator" format="1">
  <advance width="725"/>
  <outline>
    <contour>
      <point x="102" y="788"/>
      <point x="211" y="696"/>
      <point x="367" y="696" type="curve" smooth="yes"/>
      <point x="539" y="696"/>
      <point x="676" y="813"/>
      <point x="676" y="956" type="curve" smooth="yes"/>
      <point x="676" y="1062"/>
      <point x="601" y="1134"/>
      <point x="531" y="1201" type="curve"/>
      <point x="646" y="1259"/>
      <point x="705" y="1326"/>
      <point x="705" y="1401" type="curve" smooth="yes"/>
      <point x="705" y="1493"/>
      <point x="610" y="1563"/>
      <point x="481" y="1563" type="curve" smooth="yes"/>
      <point x="336" y="1563"/>
      <point x="225" y="1473"/>
      <point x="225" y="1358" type="curve" smooth="yes"/>
      <point x="225" y="1283"/>
      <point x="271" y="1222"/>
      <point x="325" y="1164" type="curve"/>
      <point x="173" y="1100"/>
      <point x="102" y="1022"/>
      <point x="102" y="918" type="curve" smooth="yes"/>
    </contour>
    <contour>
      <point x="487" y="838"/>
      <point x="434" y="776"/>
      <point x="369" y="776" type="curve" smooth="yes"/>
      <point x="305" y="776"/>
      <point x="262" y="831"/>
      <point x="262" y="913" type="curve" smooth="yes"/>
      <point x="262" y="993"/>
      <point x="302" y="1066"/>
      <point x="373" y="1114" type="curve"/>
      <point x="432" y="1052"/>
      <point x="487" y="990"/>
      <point x="487" y="913" type="curve" smooth="yes"/>
    </contour>
    <contour>
      <point x="406" y="1460"/>
      <point x="446" y="1507"/>
      <point x="500" y="1507" type="curve" smooth="yes"/>
      <point x="545" y="1507"/>
      <point x="573" y="1475"/>
      <point x="573" y="1421" type="curve" smooth="yes"/>
      <point x="573" y="1364"/>
      <point x="538" y="1297"/>
      <point x="483" y="1248" type="curve"/>
      <point x="440" y="1293"/>
      <point x="406" y="1339"/>
      <point x="406" y="1397" type="curve" smooth="yes"/>
    </contour>
  </outline>
</glyph>
<glyph name="maiChattawa-thai.small" format="1">
  <advance width="0"/>
  <outline>
    <contour>
      <point x="307" y="1845" type="line"/>
      <point x="327" y="1935" type="line"/>
      <point x="172" y="1935" type="line"/>
      <point x="196" y="2045" type="line"/>
      <point x="-23" y="2045" type="line"/>
      <point x="-46" y="1935" type="line"/>
      <point x="-184" y="1935" type="line"/>
      <point x="-202" y="1845" type="line"/>
      <point x="-66" y="1845" type="line"/>
      <point x="-93" y="1720" type="line"/>
      <point x="126" y="1720" type="line"/>
      <point x="153" y="1845" type="line"/>
    </contour>
    <contour>
      <point x="98" y="1532" type="move" name="top"/>
    </contour>
    <contour>
      <point x="63" y="1341" type="move" name="_top"/>
    </contour>
  </outline>
</glyph>
<glyph name="maiEk-thai.narrow" format="1">
  <advance width="0"/>
  <outline>
    <contour>
      <point x="-376" y="1342" type="line"/>
      <point x="-304" y="1679" type="line"/>
      <point x="-551" y="1679" type="line"/>
      <point x="-624" y="1342" type="line"/>
    </contour>
    <contour>
      <point x="-369" y="1372" type="move" name="top"/>
    </contour>
    <contour>
      <point x="-413" y="1178" type="move" name="_top"/>
    </contour>
  </outline>
</glyph>
<glyph name="saraI-thai.narrow" format="1">
  <advance width="0"/>
  <outline>
    <contour>
      <point x="-288" y="1342" type="line"/>
      <point x="-258" y="1484" type="line"/>
      <point x="-913" y="1484" type="line"/>
      <point x="-943" y="1342" type="line"/>
    </contour>
    <contour>
      <point x="-311" y="1230" type="move" name="top"/>
    </contour>
    <contour>
      <point x="-325" y="1178" type="move" name="_top"/>
    </contour>
  </outline>
</glyph>
<glyph name="saraIi-thai.narrow" format="1">
  <advance width="0"/>
  <outline>
    <contour>
      <point x="-288" y="1342" type="line"/>
      <point x="-229" y="1619" type="line"/>
      <point x="-492" y="1619" type="line"/>
      <point x="-521" y="1484" type="line"/>
      <point x="-913" y="1484" type="line"/>
      <point x="-943" y="1342" type="line"/>
    </contour>
    <contour>
      <point x="-288" y="1342" type="move" name="top"/>
    </contour>
    <contour>
      <point x="-325" y="1178" type="move" name="_top"/>
    </contour>
  </outline>
</glyph>
<glyph name="saraUe-thai.narrow" format="1">
  <advance width="0"/>
  <outline>
    <contour>
      <point x="-405" y="1342" type="line" smooth="yes"/>
      <point x="-315" y="1342"/>
      <point x="-243" y="1416"/>
      <point x="-243" y="1506" type="curve" smooth="yes"/>
      <point x="-243" y="1596"/>
      <point x="-315" y="1668"/>
      <point x="-405" y="1668" type="curve" smooth="yes"/>
      <point x="-495" y="1668"/>
      <point x="-569" y="1596"/>
      <point x="-569" y="1506" type="curve" smooth="yes"/>
      <point x="-569" y="1498"/>
      <point x="-568" y="1491"/>
      <point x="-567" y="1484" type="curve"/>
      <point x="-913" y="1484" type="line"/>
      <point x="-943" y="1342" type="line"/>
    </contour>
    <contour>
      <point x="-328" y="1342" type="move" name="top"/>
    </contour>
    <contour>
      <point x="-325" y="1178" type="move" name="_top"/>
    </contour>
  </outline>
</glyph>
<glyph name="toPatak-thai.short" format="1">
  <advance width="1075"/>
  <outline>
    <contour>
      <point x="841" y="-181" type="line"/>
      <point x="1049" y="803" type="line" smooth="yes"/>
      <point x="1059" y="850"/>
      <point x="1065" y="894"/>
      <point x="1065" y="934" type="curve" smooth="yes"/>
      <point x="1065" y="1087"/>
      <point x="979" y="1188"/>
      <point x="688" y="1188" type="curve" smooth="yes"/>
      <point x="500" y="1188"/>
      <point x="324" y="1130"/>
      <point x="174" y="1042" type="curve"/>
      <point x="170" y="1024" type="line"/>
      <point x="205" y="986"/>
      <point x="226" y="933"/>
      <point x="226" y="870" type="curve" smooth="yes"/>
      <point x="226" y="849"/>
      <point x="224" y="828"/>
      <point x="219" y="805" type="curve" smooth="yes"/>
      <point x="115" y="312" type="line" smooth="yes"/>
      <point x="96" y="220"/>
      <point x="82" y="185"/>
      <point x="22" y="185" type="curve" smooth="yes"/>
      <point x="2" y="185"/>
      <point x="-33" y="193"/>
      <point x="-49" y="205" type="curve"/>
      <point x="-72" y="99" type="line"/>
      <point x="-29" y="75"/>
      <point x="38" y="60"/>
      <point x="127" y="60" type="curve" smooth="yes"/>
      <point x="315" y="60"/>
      <point x="380" y="169"/>
      <point x="423" y="370" type="curve" smooth="yes"/>
      <point x="508" y="772" type="line" smooth="yes"/>
      <point x="512" y="793"/>
      <point x="515" y="815"/>
      <point x="515" y="837" type="curve" smooth="yes"/>
      <point x="515" y="912"/>
      <point x="489" y="988"/>
      <point x="436" y="1040" type="curve"/>
      <point x="440" y="1059" type="line"/>
      <point x="492" y="1077"/>
      <point x="561" y="1092"/>
      <point x="643" y="1092" type="curve" smooth="yes"/>
      <point x="734" y="1092"/>
      <point x="780" y="1051"/>
      <point x="780" y="962" type="curve" smooth="yes"/>
      <point x="780" y="938"/>
      <point x="776" y="911"/>
      <point x="770" y="881" type="curve" smooth="yes"/>
      <point x="566" y="-82" type="line"/>
      <point x="407" y="59" type="line"/>
      <point x="362" y="59" type="line"/>
      <point x="254" y="-58"/>
      <point x="168" y="-115"/>
      <point x="38" y="-115" type="curve" smooth="yes"/>
      <point x="-27" y="-115"/>
      <point x="-94" y="-96"/>
      <point x="-164" y="-51" type="curve"/>
      <point x="-164" y="-222"/>
      <point x="-78" y="-330"/>
      <point x="57" y="-330" type="curve" smooth="yes"/>
      <point x="229" y="-330"/>
      <point x="310" y="-246"/>
      <point x="384" y="-66" type="curve"/>
      <point x="552" y="-213" type="line"/>
    </contour>
  </outline>
</glyph>
